<?xml version="1.0" standalone="no"?><!DOCTYPE svg PUBLIC "-//W3C//DTD SVG 1.1//EN" "http://www.w3.org/Graphics/SVG/1.1/DTD/svg11.dtd"><svg t="1648386762330" class="icon" viewBox="0 0 1024 1024" version="1.1" xmlns="http://www.w3.org/2000/svg" p-id="5289" xmlns:xlink="http://www.w3.org/1999/xlink" width="200" height="200"><defs><style type="text/css"></style></defs><path d="M778.24 360.106667H245.76c-51.2 0-92.16 40.96-92.16 92.16v399.36c0 51.2 40.96 92.16 92.16 92.16h532.48c51.2 0 92.16-40.96 92.16-92.16V452.266667c0-49.493333-40.96-92.16-92.16-92.16zM312.32 563.2c0-23.893333 20.48-44.373333 44.373333-44.373333s44.373333 20.48 44.373334 44.373333-20.48 44.373333-44.373334 44.373333-44.373333-18.773333-44.373333-44.373333z m288.426667 221.866667H423.253333c-23.893333 0-44.373333-20.48-44.373333-44.373334 0-23.893333 20.48-44.373333 44.373333-44.373333h177.493334c23.893333 0 44.373333 20.48 44.373333 44.373333 0 25.6-20.48 44.373333-44.373333 44.373334z m66.56-177.493334c-23.893333 0-44.373333-20.48-44.373334-44.373333s20.48-44.373333 44.373334-44.373333c23.893333 0 44.373333 20.48 44.373333 44.373333s-18.773333 44.373333-44.373333 44.373333zM68.266667 774.826667c-18.773333 0-34.133333-15.36-34.133334-34.133334V563.2c0-18.773333 15.36-34.133333 34.133334-34.133333s34.133333 15.36 34.133333 34.133333v177.493333c-1.706667 18.773333-15.36 34.133333-34.133333 34.133334zM955.733333 774.826667c-18.773333 0-34.133333-15.36-34.133333-34.133334V563.2c0-18.773333 15.36-34.133333 34.133333-34.133333s34.133333 15.36 34.133334 34.133333v177.493333c0 18.773333-15.36 34.133333-34.133334 34.133334z" fill="#333333" p-id="5290"></path><path d="M595.626667 163.84c0-46.08-37.546667-83.626667-83.626667-83.626667s-83.626667 37.546667-83.626667 83.626667c0 34.133333 20.48 63.146667 49.493334 76.8v145.066667h68.266666v-145.066667c29.013333-13.653333 49.493333-42.666667 49.493334-76.8z m-83.626667-17.066667c8.533333 0 17.066667 6.826667 17.066667 17.066667 0 8.533333-6.826667 17.066667-17.066667 17.066667s-17.066667-6.826667-17.066667-17.066667 8.533333-17.066667 17.066667-17.066667z" fill="#333333" p-id="5291"></path></svg>