<?xml version="1.0" standalone="no"?><!DOCTYPE svg PUBLIC "-//W3C//DTD SVG 1.1//EN" "http://www.w3.org/Graphics/SVG/1.1/DTD/svg11.dtd"><svg t="1650803589803" class="icon" viewBox="0 0 1024 1024" version="1.1" xmlns="http://www.w3.org/2000/svg" p-id="11133" xmlns:xlink="http://www.w3.org/1999/xlink" width="200" height="200"><defs><style type="text/css"></style></defs><path d="M890.578941 894.301056 125.128869 894.301056c-35.227736 0-63.771985-28.574802-63.771985-63.801095L61.356884 479.706503c0-35.256992 28.544249-63.801095 63.771985-63.801095l33.728531-1.779529c0-52.089355 15.864966-83.942831 47.594898-119.41881s71.079714-53.213969 118.08107-53.213969c22.297732 0 47.001356 3.778046 74.108825 11.304464 0 0 58.899825 19.579941 99.811236 19.579941 62.397629 0 104.963794-27.356045 127.605371-82.069157 10.619284-26.325575 21.424816-39.503712 32.385898-39.503712 15.770818 0 23.672089 7.369851 23.672089 22.047132 0 26.013467-14.052616 54.744835-42.159896 86.222757-37.695028 42.751686-84.134566 64.143902-139.285867 64.143902-42.816886 0-116.20732-20.080338-116.20732-20.080338-29.793757-7.213285-51.060978-10.80509-63.741285-10.80509-30.480424 0-56.619805 13.022595-78.387443 39.098483-21.767638 26.075889-32.635595 47.155996-32.635595 83.131349l680.878536 1.342578c35.227736 0 63.803709 28.544103 63.803709 63.801095l0 350.793458C954.381627 865.726254 925.806677 894.301056 890.578941 894.301056zM922.496146 479.706503c0-17.643845-14.30436-31.915897-31.917205-31.915897L125.128869 447.790606c-17.613868 0-31.886504 14.272052-31.886504 31.915897l0 350.793458c0 17.613146 14.272636 31.915897 31.886504 31.915897L890.578941 862.415858c17.613868 0 31.917205-14.303774 31.917205-31.915897L922.496146 479.706503zM794.764903 640.160915l-62.803898 0 0 61.769832-63.770962 0 0-61.769832-63.803709 0 0 61.769832-65.771607 0 0-61.769832-61.804087 0 0 61.769832-63.803709 0 0-61.769832-63.771985 0 0 61.769832-63.802686 0 0-61.769832-64.771796 0 0 61.769832-63.770962 0 0-62.769602 64.770773 0 0-63.801095-64.770773 0 0-62.770626 63.770962 0 0 61.770855 64.771796 0 0-61.770855 63.802686 0 0 61.770855 63.771985 0 0-61.770855 63.803709 0 0 61.770855 61.804087 0 0-61.770855 65.771607 0 0 61.770855 63.803709 0 0-61.770855 63.770962 0 0 61.770855 62.803898 0 0-61.770855 63.771985 0 0 62.770626-62.773197 0 0 63.801095 62.773197 0 0 62.769602-63.771985 0L794.764903 640.160915zM349.235969 575.361073l-64.770773 0 0 63.801095 64.770773 0L349.235969 575.361073zM475.811852 575.361073l-63.803709 0 0 63.801095 63.803709 0L475.811852 575.361073zM603.386523 575.361073l-63.771985 0 0 63.801095 63.771985 0L603.386523 575.361073zM730.961194 575.361073l-63.802686 0 0 63.801095 63.802686 0L730.961194 575.361073zM733.959604 798.615786 283.465385 798.615786l0-62.801325 450.494219 0L733.959604 798.615786z" p-id="11134"></path></svg>