<?xml version="1.0" standalone="no"?><!DOCTYPE svg PUBLIC "-//W3C//DTD SVG 1.1//EN" "http://www.w3.org/Graphics/SVG/1.1/DTD/svg11.dtd"><svg t="1650803163891" class="icon" viewBox="0 0 1024 1024" version="1.1" xmlns="http://www.w3.org/2000/svg" p-id="7617" xmlns:xlink="http://www.w3.org/1999/xlink" width="200" height="200"><defs><style type="text/css"></style></defs><path d="M 472.533 893.867 C 246.187 893.867 61.8667 709.76 61.8667 483.2 S 246.187 72.5333 472.533 72.5333 S 883.2 256.853 883.2 483.2 S 699.093 893.867 472.533 893.867 Z m 0 -757.333 C 281.387 136.533 125.867 292.053 125.867 483.2 S 281.387 829.867 472.533 829.867 S 819.2 674.347 819.2 483.2 S 663.68 136.533 472.533 136.533 Z" fill="#333303" p-id="7618"></path><path d="M 423.253 730.88 c -6.4 0 -13.0133 -1.92 -18.56 -5.97333 l -167.04 -119.253 c -14.2933 -10.24 -17.7067 -30.2933 -7.46667 -44.5867 c 10.24 -14.2933 30.2933 -17.7067 44.5867 -7.46667 l 141.653 101.12 l 259.2 -340.053 c 10.6667 -14.08 30.72 -16.8533 44.8 -5.97333 c 14.08 10.6667 16.8533 30.72 5.97333 44.8 l -277.76 364.8 c -6.18667 8.32 -15.7867 12.5867 -25.3867 12.5867 Z" fill="#333303" p-id="7619"></path></svg>