<?xml version="1.0" standalone="no"?><!DOCTYPE svg PUBLIC "-//W3C//DTD SVG 1.1//EN" "http://www.w3.org/Graphics/SVG/1.1/DTD/svg11.dtd"><svg t="1650803079016" class="icon" viewBox="0 0 1024 1024" version="1.1" xmlns="http://www.w3.org/2000/svg" p-id="5860" xmlns:xlink="http://www.w3.org/1999/xlink" width="200" height="200"><defs><style type="text/css"></style></defs><path d="M386.688495 1024h-10.707888v-10.707888c-5.819504-71.696295-46.556035-152.471016-102.190498-158.290521a310.761537 310.761537 0 0 0-37.710389-3.491702 242.091384 242.091384 0 0 1-64.247329-9.311207 79.14526 79.14526 0 0 1-57.962264-86.128666v-3.026142a336.134576 336.134576 0 0 0 18.156854-60.522846 26.76972 26.76972 0 0 0-4.422824-16.061833v-1.163901h-2.327801a40.503751 40.503751 0 0 1-23.278018-18.156853 39.33985 39.33985 0 0 1 16.760173-48.883838 55.867243 55.867243 0 0 1-10.009548-15.596272 30.959764 30.959764 0 0 1 1.862241-29.795862 29.795863 29.795863 0 0 1 21.415777-11.406229c0-2.095022-1.163901-5.121164-5.586725-12.80291-1.629461-2.560582-3.491703-5.586724-4.888383-8.380086a73.325756 73.325756 0 0 0-10.475108-13.26847 90.085929 90.085929 0 0 1-21.182996-31.890884c-6.750625-29.097522 0-34.451466 23.278017-46.556036a446.2396 446.2396 0 0 0 42.133212-29.330302c43.064333-30.959764 38.408729-51.677199 34.218686-69.834053a68.204592 68.204592 0 0 1-2.327801-15.130712c0-23.278018 39.10707-186.224142 135.943623-259.549898 125.468516-81.473062 256.058195-85.895885 399.683565-13.73403 250.937031 112.898386 223.934531 357.317572 200.656513 457.180268a687.399864 687.399864 0 0 1-85.895886 179.473517c-44.926574 72.161855-80.309161 129.192998-57.962264 260.248238l1.396681 8.380086-7.448966 3.724483a577.7604 577.7604 0 0 1-255.359854 64.014549z m10.475108-23.278018h120.812912a558.672426 558.672426 0 0 0 236.73744-57.496704c-20.950216-133.848602 17.691293-196.000909 62.385088-267.929984a662.492385 662.492385 0 0 0 83.102523-172.955671c23.278018-93.112071 48.185497-324.495567-186.224142-430.177768-139.668106-69.368493-258.385997-65.64401-377.336667 11.639009-87.059786 65.41123-125.934076 222.77063-125.934076 240.461923a55.168902 55.168902 0 0 0 1.862241 10.009548c4.422823 20.019095 12.337349 53.772221-43.529893 93.112071a475.802682 475.802682 0 0 1-46.556036 29.563082 69.834053 69.834053 0 0 0-13.50125 8.845647 36.080927 36.080927 0 0 0 1.862242 12.104569 76.351898 76.351898 0 0 0 16.294612 23.278018 93.112071 93.112071 0 0 1 13.966811 18.622414l3.724482 6.750625a32.356445 32.356445 0 0 1 0 43.995454l-3.258922 3.491702h-4.422823a11.639009 11.639009 0 0 0-8.380087 2.327802v7.216186a28.399182 28.399182 0 0 0 20.019095 14.432371l9.078427 2.560581v19.553535l-12.802909 1.862242h-3.957263l-3.258923 1.629461-5.819504 4.655604a15.363492 15.363492 0 0 0-7.914526 19.786315 25.140259 25.140259 0 0 0 10.242327 6.052284c4.888384 2.095022 12.57013 5.353944 14.665152 12.57013a48.185497 48.185497 0 0 1 6.285064 29.330302 356.852012 356.852012 0 0 1-19.087974 64.480109 56.100023 56.100023 0 0 0 40.969311 59.358945 245.117527 245.117527 0 0 0 59.358945 8.612867 297.725847 297.725847 0 0 1 39.57263 3.491703c65.41123 5.819504 111.967265 89.154808 121.045693 168.765628z" fill="#252B3A" p-id="5861"></path><path d="M627.615978 229.288475a11.639009 11.639009 0 0 0-9.078427-10.475108 49.582178 49.582178 0 0 1-33.985906-25.37304 50.047738 50.047738 0 0 1-5.121164-42.133212 11.639009 11.639009 0 0 0-3.258922-11.871789 146.651512 146.651512 0 0 0-50.978859-30.494203 11.406229 11.406229 0 0 0-13.03569 3.491703 50.280518 50.280518 0 0 1-38.874289 17.225733 56.100023 56.100023 0 0 1-38.64151-18.855195 11.639009 11.639009 0 0 0-12.570129-3.026142 174.119573 174.119573 0 0 0-50.280519 29.795863 10.707888 10.707888 0 0 0-4.422823 12.80291 54.005001 54.005001 0 0 1-40.038191 69.834053 16.992953 16.992953 0 0 0-7.914526 9.776767 162.946124 162.946124 0 0 0-3.258922 30.494203 132.684701 132.684701 0 0 0 2.095022 28.864742 11.639009 11.639009 0 0 0 9.078426 10.940669 49.582178 49.582178 0 0 1 34.684247 25.373039 50.513298 50.513298 0 0 1 5.121164 42.365992 11.406229 11.406229 0 0 0 3.258922 12.80291 145.02205 145.02205 0 0 0 51.444419 30.726983h3.724483a13.26847 13.26847 0 0 0 8.845647-3.724482 50.047738 50.047738 0 0 1 38.87429-17.458514 56.100023 56.100023 0 0 1 39.107069 17.691294 11.639009 11.639009 0 0 0 8.380087 3.957263 13.26847 13.26847 0 0 0 4.190043 0 183.43078 183.43078 0 0 0 49.349398-30.494203 10.707888 10.707888 0 0 0 4.422823-12.80291 55.634462 55.634462 0 0 1 5.819504-43.064333 56.100023 56.100023 0 0 1 36.313708-25.8386 16.527393 16.527393 0 0 0 7.914526-9.543987 164.575585 164.575585 0 0 0 3.258923-30.726983 145.254831 145.254831 0 0 0-4.422824-30.261423z m-72.394635 138.038645a118.01955 118.01955 0 0 1-31.192544 18.622414 76.119118 76.119118 0 0 0-50.746078-19.553535 79.37804 79.37804 0 0 0-50.746079 19.320755 145.487611 145.487611 0 0 1-31.192544-18.622414 84.964765 84.964765 0 0 0-8.612866-54.703342 78.44692 78.44692 0 0 0-41.202092-35.149807 128.494658 128.494658 0 0 1-1.629461-18.622414 131.75358 131.75358 0 0 1 1.629461-18.855194 79.14526 79.14526 0 0 0 42.365993-35.382587 85.430325 85.430325 0 0 0 8.380086-54.470562 106.846101 106.846101 0 0 1 31.192544-18.622414 78.91248 78.91248 0 0 0 50.746078 19.320755 77.050239 77.050239 0 0 0 50.746079-19.320755 145.487611 145.487611 0 0 1 31.192544 18.622414 77.283019 77.283019 0 0 0 8.612866 54.703342 78.44692 78.44692 0 0 0 42.133212 35.149807 131.75358 131.75358 0 0 1 1.629462 18.855194 128.494658 128.494658 0 0 1-1.629462 18.622414 80.309161 80.309161 0 0 0-42.365992 35.382587 86.128666 86.128666 0 0 0-9.311207 54.703342z" p-id="5862"></path><path d="M830.367513 465.327574a8.845647 8.845647 0 0 0-6.750626-7.681745 38.408729 38.408729 0 0 1-25.838599-19.320755 37.943169 37.943169 0 0 1-3.724483-31.658104 8.612867 8.612867 0 0 0-2.560582-9.776768 105.21664 105.21664 0 0 0-38.408729-23.278017 8.845647 8.845647 0 0 0-9.776768 2.560582 38.408729 38.408729 0 0 1-29.330302 13.035689 42.133212 42.133212 0 0 1-29.563083-13.26847 8.845647 8.845647 0 0 0-9.543987-2.560582 139.668106 139.668106 0 0 0-37.710389 23.278018 7.914526 7.914526 0 0 0-3.491702 9.776768 42.365992 42.365992 0 0 1-3.724483 32.589224 41.202091 41.202091 0 0 1-26.53694 19.320755 13.03569 13.03569 0 0 0-5.819505 6.983405 122.442373 122.442373 0 0 0-2.560582 23.278018 96.603774 96.603774 0 0 0 2.560582 23.278018 8.612867 8.612867 0 0 0 6.750625 8.147306 41.202091 41.202091 0 0 1 29.563083 51.211639 9.078427 9.078427 0 0 0 2.327802 9.776768 114.062287 114.062287 0 0 0 38.874289 23.278017h2.793362a9.776767 9.776767 0 0 0 6.750626-2.793362 37.943169 37.943169 0 0 1 29.330302-14.897931 42.365992 42.365992 0 0 1 29.563082 13.50125 8.612867 8.612867 0 0 0 6.285065 2.793362h3.026143a132.219141 132.219141 0 0 0 37.943168-23.278017 7.914526 7.914526 0 0 0 3.491703-9.543988 40.969311 40.969311 0 0 1 30.261423-52.142759 12.337349 12.337349 0 0 0 5.819505-6.052285 118.950671 118.950671 0 0 0 2.327801-23.278018 107.544442 107.544442 0 0 0-2.327801-23.278018z m-54.703342 104.05274a83.102523 83.102523 0 0 1-23.278018 14.199591 58.660605 58.660605 0 0 0-38.408729-15.130712 59.824506 59.824506 0 0 0-38.408729 14.665151 114.993408 114.993408 0 0 1-23.278018-14.199591 64.712889 64.712889 0 0 0-6.285065-41.202091 60.755626 60.755626 0 0 0-31.890884-26.53694 101.026597 101.026597 0 0 1-1.396681-14.199591 101.026597 101.026597 0 0 1 1.396681-14.199591 60.755626 60.755626 0 0 0 31.890884-26.53694 64.712889 64.712889 0 0 0 6.285065-41.202091 81.705842 81.705842 0 0 1 23.278018-13.966811 59.824506 59.824506 0 0 0 38.408729 14.665151 57.729484 57.729484 0 0 0 38.175949-14.665151 114.062287 114.062287 0 0 1 23.278018 13.966811 58.660605 58.660605 0 0 0 38.408729 67.739031 87.292566 87.292566 0 0 1 0 28.399182 59.358945 59.358945 0 0 0-31.890884 26.76972 64.247329 64.247329 0 0 0-6.285065 40.969311z" fill="#F66F6A" p-id="5863"></path></svg>