<?xml version="1.0" standalone="no"?><!DOCTYPE svg PUBLIC "-//W3C//DTD SVG 1.1//EN" "http://www.w3.org/Graphics/SVG/1.1/DTD/svg11.dtd"><svg t="1650803400341" class="icon" viewBox="0 0 1024 1024" version="1.1" xmlns="http://www.w3.org/2000/svg" p-id="8567" xmlns:xlink="http://www.w3.org/1999/xlink" width="200" height="200"><defs><style type="text/css"></style></defs><path d="M784 640H256a160 160 0 0 1-63.616-306.88A224 224 0 0 1 600 192.192 160 160 0 0 1 768 352.864 144 144 0 1 1 784 640z m-0.32-32h0.32a112 112 0 1 0-12.48-223.328l-35.712 3.968 0.192-35.936V352a128 128 0 0 0-134.432-127.84l-17.728 0.864-10.112-14.56A192 192 0 0 0 224.32 331.296l1.28 22.304-20.48 8.896A128 128 0 0 0 256 608h527.68zM320 416a32 32 0 1 1 0-64 32 32 0 0 1 0 64z m96 288a32 32 0 1 1 0-64 32 32 0 0 1 0 64z m-32-128a32 32 0 1 1 0-64 32 32 0 0 1 0 64z m0 352a32 32 0 1 1 0-64 32 32 0 0 1 0 64z m224-512a32 32 0 1 1 0-64 32 32 0 0 1 0 64z m96 96a32 32 0 1 1 0-64 32 32 0 0 1 0 64z m-128 64a32 32 0 1 1 0-64 32 32 0 0 1 0 64z m32 352a32 32 0 1 1 0-64 32 32 0 0 1 0 64z m-176-608a48 48 0 1 1 0-96 48 48 0 0 1 0 96z m-160 224a48 48 0 1 1 0-96 48 48 0 0 1 0 96z m224-64a48 48 0 1 1 0-96 48 48 0 0 1 0 96z m96 288a48 48 0 1 1 0-96 48 48 0 0 1 0 96z m-128 96a48 48 0 1 1 0-96 48 48 0 0 1 0 96z" p-id="8568"></path></svg>