<?xml version="1.0" standalone="no"?><!DOCTYPE svg PUBLIC "-//W3C//DTD SVG 1.1//EN" "http://www.w3.org/Graphics/SVG/1.1/DTD/svg11.dtd"><svg t="1650803683638" class="icon" viewBox="0 0 1024 1024" version="1.1" xmlns="http://www.w3.org/2000/svg" p-id="12376" xmlns:xlink="http://www.w3.org/1999/xlink" width="200" height="200"><defs><style type="text/css"></style></defs><path d="M512 201.984l1.5872-1.604267c83.694933-84.650667 212.753067-106.410667 312.2688-48.349866 147.2 85.9136 172.782933 284.142933 59.221333 403.950933l-3.874133 3.9936-320.597333 324.266667a68.317867 68.317867 0 0 1-94.464 2.628266l-2.730667-2.628266-166.621867-168.516267a34.133333 34.133333 0 0 1 46.3872-50.005333l2.167467 2.013866L512 836.266667l320.648533-324.266667c86.8864-87.893333 68.829867-236.782933-41.198933-301.0048-70.1952-40.96-162.901333-26.4192-225.365333 33.501867l-3.9424 3.8912-25.856 26.146133a34.133333 34.133333 0 0 1-46.370134 2.013867l-2.167466-2.013867-25.890134-26.1632c-62.464-63.163733-157.627733-79.223467-229.290666-37.376a192.341333 192.341333 0 0 0-69.802667 263.816533 34.133333 34.133333 0 1 1-58.88 34.542934A260.590933 260.590933 0 0 1 198.144 152.029867c97.792-57.070933 224.136533-37.034667 307.882667 44.032l5.973333 5.922133z" fill="#444444" p-id="12377"></path><path d="M716.8 332.8l48.264533 48.264533-204.8 204.8a34.133333 34.133333 0 0 1-48.264533 0l-112.401067-112.384-163.601066 163.584L187.733333 588.8l187.733334-187.733333a34.133333 34.133333 0 0 1 48.264533 0l112.401067 112.384L716.8 332.8z" fill="#00B386" p-id="12378"></path></svg>