<?xml version="1.0" standalone="no"?><!DOCTYPE svg PUBLIC "-//W3C//DTD SVG 1.1//EN" "http://www.w3.org/Graphics/SVG/1.1/DTD/svg11.dtd"><svg t="1650803774562" class="icon" viewBox="0 0 1024 1024" version="1.1" xmlns="http://www.w3.org/2000/svg" p-id="13282" xmlns:xlink="http://www.w3.org/1999/xlink" width="200" height="200"><defs><style type="text/css"></style></defs><path d="M981.223084 337.413341c-23.613954-25.49195-54.453894-42.453917-88.149828-48.763905V0h-324.719366l2.369995 20.157961c0.401999 3.421993 0.589999 6.533987 0.589999 9.793981 0 68.803866-55.973891 124.781756-124.777756 124.781756s-124.781756-55.977891-124.781756-124.781756c0-3.253994 0.19-6.367988 0.591998-9.793981L324.718366 0H0.001v324.717366l20.157961-2.369996a81.78384 81.78384 0 0 1 9.79398-0.591998c68.803866 0 124.781756 55.977891 124.781757 124.781756s-55.977891 124.777756-124.781757 124.777756c-3.259994 0-6.371988-0.188-9.79398-0.589999L0.001 568.35289v324.717366h288.649436c6.309988 33.699934 23.273955 64.537874 48.763905 88.149828C367.194283 1008.80603 405.946207 1023.998 446.536128 1023.998s79.341845-15.18997 109.121787-42.775916c25.48995-23.613954 42.453917-54.453894 48.763904-88.149828h288.649437V604.420819c33.699934-6.309988 64.537874-23.273955 88.149828-48.763904C1008.80703 525.876973 1023.999 487.123049 1023.999 446.535128c0-40.585921-15.19197-79.341845-42.775916-109.121787z m-107.65979 233.245544l-16.587968 1.347998v284.965443H572.009883l-1.347998 16.587968c-5.20399 64.115875-59.725883 114.337777-124.123757 114.337777-64.399874 0-118.921768-50.221902-124.123758-114.337777l-1.347997-16.587968H36.098929V607.296814c85.873832-3.241994 154.731698-74.109855 154.731698-160.761686s-68.857866-157.519692-154.731698-160.761686V36.097929h249.675513c3.241994 85.873832 74.109855 154.731698 160.761686 154.731698s157.519692-68.857866 160.761686-154.731698h249.677512v284.965444l16.587968 1.347997c64.115875 5.20399 114.337777 59.723883 114.337777 124.123758 0.002 64.397874-50.221902 118.917768-114.337777 124.123757z" p-id="13283"></path></svg>