<?xml version="1.0" standalone="no"?><!DOCTYPE svg PUBLIC "-//W3C//DTD SVG 1.1//EN" "http://www.w3.org/Graphics/SVG/1.1/DTD/svg11.dtd"><svg t="1650803376988" class="icon" viewBox="0 0 1024 1024" version="1.1" xmlns="http://www.w3.org/2000/svg" p-id="8432" xmlns:xlink="http://www.w3.org/1999/xlink" width="200" height="200"><defs><style type="text/css"></style></defs><path d="M704 364.48V310.656a255.36 255.36 0 0 1 56.32 106.88A192.032 192.032 0 0 1 736 800h-96v-32h96a160 160 0 0 0 20.32-318.72l-21.728-2.752-5.312-21.216A222.72 222.72 0 0 0 704 364.48zM512 256a224.096 224.096 0 0 0-217.28 169.28l-5.312 21.248-21.728 2.752A160.032 160.032 0 0 0 288 768h96v32H288a192 192 0 0 1-24.32-382.464A256.096 256.096 0 0 1 512 224v32z m-160 224a32 32 0 1 1 0-64 32 32 0 0 1 0 64z m-32 224a32 32 0 1 1 0-64 32 32 0 0 1 0 64z m96-64a32 32 0 1 1 0-64 32 32 0 0 1 0 64z m96 64a32 32 0 1 1 0-64 32 32 0 0 1 0 64z m128-192a32 32 0 1 1 0-64 32 32 0 0 1 0 64z m96 64a32 32 0 1 1 0-64 32 32 0 0 1 0 64z m-272-160a48 48 0 1 1 0-96 48 48 0 0 1 0 96z m-224 224a48 48 0 1 1 0-96 48 48 0 0 1 0 96z m288-64a48 48 0 1 1 0-96 48 48 0 0 1 0 96z m160 160a48 48 0 1 1 0-96 48 48 0 0 1 0 96z m-64-579.136l-65.76 65.76a16 16 0 0 1-22.624-22.656L640 95.616l107.328 107.296a16 16 0 0 1-22.656 22.624L656 156.864V400a16 16 0 1 1-32 0V156.864zM448 896v-103.584l-45.12-45.12 22.656-22.624L480 779.2V896h-32z m128-224h32v192.096h-32V672z m-128 256h32v32h-32v-32z m128-32h32v32h-32v-32z" p-id="8433"></path></svg>